# xmcd CD database file generated by Grip 3.2.0
# 
# Track frame offsets:
#       150
#       47526
#       76348
#       101611
#       118447
#       171560
#       194259
#       216699
#       238553
#       258499
#       277384
#       306432
#       346455
# 
# Disc length: 4677 seconds
# 
# Revision: 5
# Processed by: cddbd v1.5.2PL0 Copyright (c) Steve Scherf et al.
# Submitted via: Grip 3.2.0
# 
DISCID=d412430d
DTITLE=Various Artist - Rough Guide to Congolese Soukous
DYEAR=1900
DGENRE=Blues
TTITLE0=Franco and Sam Mangwana - Cooperation
TTITLE1=Zaiko Langa Langa - Amia Mamibo
TTITLE2=Koffi Olomide - Loi
TTITLE3=Kanda Bongo Man - Sai
TTITLE4=Tabu Ley 'Rochereau' - Sarah
TTITLE5=Ry-Co Jazz - Marie Jose
TTITLE6=Deyess Mukangi - La Vie
TTITLE7=Pepe Kalle and Rigo Star - Naji
TTITLE8=Thu Zahina - Sanga Mbele Mbele
TTITLE9=Papa Wemba - Overdose
TTITLE10=Nouvelle Generation de la Republique Democratique - Ma Cherie
TTITLE11=Yondo Sisters et le Groupe Planete - Bilanga
TTITLE12=Data Track - Informations
EXTD=
EXTT0=
EXTT1=
EXTT2=
EXTT3=
EXTT4=
EXTT5=
EXTT6=
EXTT7=
EXTT8=
EXTT9=
EXTT10=
EXTT11=
EXTT12=
PLAYORDER=
